<svg id="Group_101" data-name="Group 101" xmlns="http://www.w3.org/2000/svg" xmlns:xlink="http://www.w3.org/1999/xlink" width="42" height="32.608" viewBox="0 0 42 32.608">
  <defs>
    <style>
      .cls-1, .cls-2, .cls-4 {
        fill: none;
        stroke-width: 0.75px;
      }

      .cls-1 {
        stroke: #707070;
      }

      .cls-2, .cls-4 {
        stroke: #fa4676;
      }

      .cls-2 {
        stroke-miterlimit: 10;
      }

      .cls-3 {
        clip-path: url(#clip-path);
      }

      .cls-4 {
        stroke-linecap: round;
        stroke-linejoin: round;
      }
    </style>
    <clipPath id="clip-path">
      <rect id="Rectangle_56" data-name="Rectangle 56" class="cls-1" width="42" height="32.608"/>
    </clipPath>
  </defs>
  <line id="Line_29" data-name="Line 29" class="cls-2" x2="14.519" transform="translate(10.47 3.183)"/>
  <g id="Group_100" data-name="Group 100" transform="translate(0 0)">
    <g id="Group_99" data-name="Group 99" class="cls-3">
      <path id="Path_183" data-name="Path 183" class="cls-2" d="M29.855,3.529h2.1a3.314,3.314,0,0,1,3.3,3.3v22.6a3.314,3.314,0,0,1-3.3,3.3H3.55a3.308,3.308,0,0,1-3.3-3.3V6.82a3.308,3.308,0,0,1,3.3-3.3H7.094" transform="translate(-0.025 -0.346)"/>
      <line id="Line_30" data-name="Line 30" class="cls-2" x2="1.434" transform="translate(28.397 3.183)"/>
      <path id="Path_184" data-name="Path 184" class="cls-2" d="M7.83.25h3.409V5.931a1.7,1.7,0,1,1-3.409,0Z" transform="translate(-0.769 -0.025)"/>
      <path id="Path_185" data-name="Path 185" class="cls-2" d="M31.119,3.53V6.253a1.7,1.7,0,0,1-3.409,0V3.53" transform="translate(-2.722 -0.347)"/>
      <path id="Path_186" data-name="Path 186" class="cls-2" d="M27.71.412V.25h3.409V3.208" transform="translate(-2.722 -0.025)"/>
      <line id="Line_31" data-name="Line 31" class="cls-2" y1="2.795" transform="translate(24.988 0.388)"/>
      <line id="Line_32" data-name="Line 32" class="cls-2" x2="35.007" transform="translate(0.225 11.615)"/>
      <line id="Line_33" data-name="Line 33" class="cls-4" x2="24.186" transform="translate(17.476 19.776)"/>
      <line id="Line_34" data-name="Line 34" class="cls-4" x1="3.165" y1="4.22" transform="translate(17.476 19.776)"/>
      <line id="Line_35" data-name="Line 35" class="cls-4" x1="3.165" y2="4.22" transform="translate(17.476 15.556)"/>
    </g>
  </g>
</svg>
