<svg xmlns="http://www.w3.org/2000/svg" width="27.507" height="27.5" viewBox="0 0 27.507 27.5">
  <g id="Layer_1" transform="translate(0.506 0.5)">
    <path id="Path_192" data-name="Path 192" d="M5.606,23.551,3.467,30,9.889,27.85c.609.349,6.142,3.375,12.135.717a13.23,13.23,0,0,0,7.852-12.179A13.559,13.559,0,0,0,16.318,3.5,13.486,13.486,0,0,0,3.467,14.96a13.193,13.193,0,0,0,2.139,8.6Z" transform="translate(-3.38 -3.496)" fill="none" stroke="#333" stroke-linecap="round" stroke-linejoin="round" stroke-width="1"/>
    <path id="Path_193" data-name="Path 193" d="M30.1,27.109l-1.844-1.24-1.641-1.1a.728.728,0,0,0-.977.157l-1.016,1.311a.725.725,0,0,1-.922.2,11.758,11.758,0,0,1-3.306-2.558,12.089,12.089,0,0,1-2.548-3.32.723.723,0,0,1,.2-.926l1.305-1.02a.735.735,0,0,0,.156-.981l-1.063-1.6-1.266-1.907a.723.723,0,0,0-.977-.22l-1.461.879a1.82,1.82,0,0,0-.813,1.052c-.4,1.46-.477,4.685,4.666,9.849s8.354,5.085,9.808,4.685a1.784,1.784,0,0,0,1.047-.816l.875-1.468A.726.726,0,0,0,30.1,27.1Z" transform="translate(-8.967 -9.04)" fill="none" stroke="#333" stroke-miterlimit="2.61" stroke-width="1" fill-rule="evenodd"/>
  </g>
</svg>
