<svg xmlns="http://www.w3.org/2000/svg" width="28" height="23.45" viewBox="0 0 28 23.45">
  <defs>
    <style>
      .cls-1 {
        fill: #333;
        stroke: #333;
        stroke-miterlimit: 10;
        stroke-width: 0.5px;
      }
    </style>
  </defs>
  <g id="unhotel-menu-icon" transform="translate(0.25 0.25)">
    <g id="Layer_1">
      <path id="Path_25" data-name="Path 25" class="cls-1" d="M15.74,18.093H4.139a1.735,1.735,0,0,1-.862-.155,2.533,2.533,0,0,1-1.168-1.719,4.636,4.636,0,0,1,0-2.085,2.475,2.475,0,0,1,1.168-1.719,1.735,1.735,0,0,1,.862-.155h23.2a1.735,1.735,0,0,1,.862.155,2.533,2.533,0,0,1,1.168,1.719,4.636,4.636,0,0,1,0,2.085A2.475,2.475,0,0,1,28.2,17.938a1.735,1.735,0,0,1-.862.155H15.74Zm-11.5-.567h23.1a1.455,1.455,0,0,0,.731-.128A1.989,1.989,0,0,0,29,16.027a3.818,3.818,0,0,0,.094-.85,3.758,3.758,0,0,0-.094-.85,1.988,1.988,0,0,0-.925-1.372,1.467,1.467,0,0,0-.731-.128H4.139a1.455,1.455,0,0,0-.731.128,1.989,1.989,0,0,0-.925,1.372,3.817,3.817,0,0,0-.094.85,3.758,3.758,0,0,0,.094.85A1.988,1.988,0,0,0,3.408,17.4a1.467,1.467,0,0,0,.731.128Zm11.5,12.417H4.139a1.455,1.455,0,0,0-.731.128,1.989,1.989,0,0,0-.925,1.372,3.818,3.818,0,0,0-.094.85,3.758,3.758,0,0,0,.094.85,1.988,1.988,0,0,0,.925,1.372,1.467,1.467,0,0,0,.731.128h23.2a1.455,1.455,0,0,0,.731-.128A1.989,1.989,0,0,0,29,33.143a3.818,3.818,0,0,0,.094-.85,3.758,3.758,0,0,0-.094-.85,1.988,1.988,0,0,0-.925-1.372,1.467,1.467,0,0,0-.731-.128H15.74Zm-11.5-.567h23.1a1.735,1.735,0,0,1,.862.155,2.533,2.533,0,0,1,1.168,1.719,4.636,4.636,0,0,1,0,2.085A2.475,2.475,0,0,1,28.2,35.054a1.735,1.735,0,0,1-.862.155H4.139a1.735,1.735,0,0,1-.862-.155,2.533,2.533,0,0,1-1.168-1.719,4.636,4.636,0,0,1,0-2.085,2.475,2.475,0,0,1,1.168-1.719,1.735,1.735,0,0,1,.862-.155Zm11.5-2.725H4.139a1.735,1.735,0,0,1-.862-.155,2.533,2.533,0,0,1-1.168-1.719,4.636,4.636,0,0,1,0-2.085,2.475,2.475,0,0,1,1.168-1.719,1.735,1.735,0,0,1,.862-.155h23.2a1.735,1.735,0,0,1,.862.155,2.533,2.533,0,0,1,1.168,1.719,4.636,4.636,0,0,1,0,2.085A2.475,2.475,0,0,1,28.2,26.5a1.735,1.735,0,0,1-.862.155H15.74Zm-11.5-.567h23.1a1.455,1.455,0,0,0,.731-.128A1.989,1.989,0,0,0,29,24.585a3.818,3.818,0,0,0,.094-.85,3.758,3.758,0,0,0-.094-.85,1.988,1.988,0,0,0-.925-1.372,1.467,1.467,0,0,0-.731-.128H4.139a1.455,1.455,0,0,0-.731.128,1.989,1.989,0,0,0-.925,1.372,3.818,3.818,0,0,0-.094.85,3.758,3.758,0,0,0,.094.85,1.988,1.988,0,0,0,.925,1.372,1.467,1.467,0,0,0,.731.128Z" transform="translate(-1.99 -12.26)"/>
    </g>
  </g>
</svg>
