<svg id="Unhotel-logo-favicon-novo-00" xmlns="http://www.w3.org/2000/svg" width="76.895" height="80.895" viewBox="0 0 76.895 80.895">
  <defs>
    <style>
      .cls-1 {
        fill: #f94676;
      }

      .cls-2 {
        fill: #f4f2ec;
      }
    </style>
  </defs>
  <ellipse id="Ellipse_3" data-name="Ellipse 3" class="cls-1" cx="38.448" cy="40.448" rx="38.448" ry="40.448"/>
  <path id="Path_3" data-name="Path 3" class="cls-2" d="M91.653,102.816H84.743a.8.8,0,0,1-.043-.409V90.637a8.567,8.567,0,0,0-.4-2.907,3.736,3.736,0,0,0-3.441-2.657,4.554,4.554,0,0,0-2.707.5,4.245,4.245,0,0,0-1.993,3.162,8.984,8.984,0,0,0-.137,1.672q0,6,0,12.006a.933.933,0,0,1-.035.412c-.089.005-.182.013-.276.013q-3.3,0-6.6-.011a1.692,1.692,0,0,0-.463.109,13.838,13.838,0,0,1-8.355-.178,9.564,9.564,0,0,1-6.246-6.872,15.862,15.862,0,0,1-.577-4.409V78.912h6.887a.933.933,0,0,1,.033.407q0,6.035.005,12.073a6.7,6.7,0,0,0,.772,3.42,3.556,3.556,0,0,0,2.681,1.8,4.644,4.644,0,0,0,3.167-.5,4.227,4.227,0,0,0,1.9-3.043,18.235,18.235,0,0,0,.147-3.218c.018-.941.008-1.884,0-2.825a.675.675,0,0,1,.195-.5q3.642-3.811,7.271-7.635a1.368,1.368,0,0,1,.815-.335,14.756,14.756,0,0,1,6.476.1.8.8,0,0,1,.41.234q3.372,3.544,6.752,7.085a.96.96,0,0,1,.235.465,17.665,17.665,0,0,1,.433,4.029c.01,4.013,0,8.025,0,12.038v.308Z" transform="translate(-34.116 -50.421)"/>
</svg>
