<?xml version="1.0" encoding="UTF-8"?>
<svg xmlns="http://www.w3.org/2000/svg" version="1.1" viewBox="0 0 1920 1080">
  <defs>
    <style>
      .cls-1, .cls-2 {
        fill: #fa4676;
      }

      .cls-2 {
        display: none;
      }

      .cls-3 {
        fill: #1f2020;
      }
    </style>
  </defs>
  <!-- Generator: Adobe Illustrator 28.6.0, SVG Export Plug-In . SVG Version: 1.1.0 Build 98)  -->
  <g>
    <g id="Layer_1">
      <path class="cls-1" d="M141.48,539.57c0,20.76-.21,41.52.11,62.27.12,7.55.77,15.23,2.4,22.59,6.52,29.43,28.65,44.11,60.34,40.6,25.87-2.86,43.94-23.65,44.7-51.32.5-18.32.81-36.65,1.86-54.94.23-4.03,2.23-8.84,5.04-11.7,28.39-28.85,56.88-57.61,86-85.72,4.48-4.32,12.28-7.38,18.51-7.32,22.34.22,44.69,1.72,66.97,3.52,4.3.35,9.11,3.4,12.35,6.57,22.99,22.5,46.43,44.65,67.92,68.54,6.71,7.45,9.41,19.66,11.13,30.16,2.28,13.87,2.29,28.19,2.39,42.33.28,39.44-.1,78.88.26,118.31.07,8.16-2.32,10.95-10.63,10.72-19.36-.53-38.76-.66-58.11.04-9.79.35-13.15-2.32-13.02-12.6.54-43.58.37-87.18.16-130.77-.08-16.46-2.91-32.32-13.53-45.8-14.32-18.17-41.46-20.26-62.01-13.65-18.92,6.09-31.55,25.46-31.88,47.82-.71,47.37-1.41,94.75-1.45,142.13-.01,9.92-2.73,13.21-12.85,12.87-22.46-.74-44.97-.54-67.45-.17-6.44.1-12.86,2.09-19.29,3.2-36.17,6.21-71.79,5.29-105.22-11.46-40.52-20.3-60.88-55.61-63.47-99.11-3.12-52.39-1.82-105.03-2.7-157.56-.12-7.27,2.37-9.7,9.59-9.57,20.75.36,41.52.45,62.27-.03,8.21-.19,9.83,3.29,9.73,10.52-.32,23.17-.12,46.36-.12,69.53Z"/>
      <path class="cls-2" d="M977.68,597.81c.12-29.93,21.7-51.16,51.92-51.07,30.32.09,52.47,22.19,52.35,52.22-.12,29.51-23.07,52.04-53.01,52.02-29.67-.02-51.38-22.55-51.26-53.18Z"/>
      <path class="cls-3" d="M554.66,306.83h66.28v170.82c18.38-31.77,46.79-49.15,81.88-49.15,63.5,0,123.65,44.35,123.65,149.84v154.04h-66.28v-154.04c0-56.34-27.85-83.31-69.62-83.31s-69.62,28.17-69.62,83.31v154.04h-66.28v-425.55Z"/>
      <path class="cls-1" d="M869.9,584.34c0-89.91,61.27-155.83,148.16-155.83s148.16,65.93,148.16,155.83-61.27,155.83-148.16,155.83-148.16-65.93-148.16-155.83ZM1098.82,584.34c0-52.15-32.3-89.31-80.76-89.31s-81.32,37.16-81.32,89.31,32.86,89.31,81.32,89.31,80.76-37.16,80.76-89.31Z"/>
      <path class="cls-3" d="M1209.66,618.5v-287.1h66.28v104.89h142.03v64.73h-142.03v117.47c0,39.56,18.94,55.14,46.23,55.14s46.23-14.98,46.23-55.14v-7.79h66.28v7.79c0,82.11-45.67,121.67-112.51,121.67s-112.51-39.56-112.51-121.67Z"/>
      <path class="cls-3" d="M1465.86,584.34c0-89.91,61.27-155.83,148.16-155.83s147.04,65.93,147.04,155.83v25.17h-225.58c8.91,43.15,39.54,65.93,78.53,65.93,29.52,0,51.24-8.99,65.17-28.17h70.74c-20.61,56.34-70.74,92.9-135.9,92.9-86.89,0-148.16-65.93-148.16-155.83ZM1690.88,552.57c-10.58-39.56-40.66-59.34-76.86-59.34s-66.28,20.38-76.86,59.34h153.73Z"/>
      <path class="cls-3" d="M1813.97,306.83h66.28v425.55h-66.28v-425.55Z"/>
    </g>
  </g>
</svg>